<svg xmlns="http://www.w3.org/2000/svg" viewBox="0 0 1600 900" preserveAspectRatio="xMidYMid slice">
  <defs>
    <linearGradient id="sky" x1="0" y1="0" x2="1" y2="1">
      <stop offset="0" stop-color="#fff7eb"/>
      <stop offset=".38" stop-color="#f6fbf8"/>
      <stop offset=".74" stop-color="#cfe9e7"/>
      <stop offset="1" stop-color="#7eaeb1"/>
    </linearGradient>
    <linearGradient id="warm" x1="0" y1="0" x2="1" y2="0">
      <stop offset="0" stop-color="#f6c56f" stop-opacity=".82"/>
      <stop offset=".35" stop-color="#fff6df" stop-opacity=".5"/>
      <stop offset="1" stop-color="#0f766e" stop-opacity=".5"/>
    </linearGradient>
    <linearGradient id="glass" x1=".12" y1=".2" x2=".92" y2=".85">
      <stop offset="0" stop-color="#ffffff" stop-opacity=".78"/>
      <stop offset=".42" stop-color="#e8f5f1" stop-opacity=".52"/>
      <stop offset=".72" stop-color="#8ac2c4" stop-opacity=".44"/>
      <stop offset="1" stop-color="#16384a" stop-opacity=".58"/>
    </linearGradient>
    <linearGradient id="edge" x1="0" y1="0" x2="1" y2="0">
      <stop offset="0" stop-color="#ffffff" stop-opacity=".1"/>
      <stop offset=".52" stop-color="#f6c56f" stop-opacity=".85"/>
      <stop offset="1" stop-color="#ffffff" stop-opacity=".22"/>
    </linearGradient>
    <radialGradient id="sun" cx=".08" cy=".48" r=".52">
      <stop offset="0" stop-color="#fff4bf" stop-opacity=".98"/>
      <stop offset=".34" stop-color="#ffd783" stop-opacity=".48"/>
      <stop offset=".72" stop-color="#ffffff" stop-opacity=".16"/>
      <stop offset="1" stop-color="#ffffff" stop-opacity="0"/>
    </radialGradient>
    <filter id="soft" x="-10%" y="-20%" width="120%" height="140%">
      <feGaussianBlur stdDeviation="9"/>
    </filter>
    <filter id="grain" x="0" y="0" width="100%" height="100%">
      <feTurbulence type="fractalNoise" baseFrequency=".72" numOctaves="2" seed="13"/>
      <feColorMatrix type="saturate" values="0"/>
      <feComponentTransfer>
        <feFuncA type="table" tableValues="0 .12"/>
      </feComponentTransfer>
    </filter>
  </defs>

  <rect width="1600" height="900" fill="url(#sky)"/>
  <rect width="1600" height="900" fill="url(#sun)"/>

  <path d="M-120 588C118 475 332 493 562 566c234 74 414 65 620-34 154-74 295-106 538-55v454H-120Z" fill="url(#warm)" opacity=".48" filter="url(#soft)"/>
  <path d="M-70 682C143 565 362 538 607 604c256 69 430 51 652-63 164-84 322-125 497-93v489H-70Z" fill="#fff8e8" opacity=".54"/>

  <path d="M-120 706C132 569 360 552 620 621c262 69 480 33 717-92 137-73 249-92 411-67v475H-120Z" fill="url(#glass)" opacity=".92"/>
  <path d="M-80 747C172 629 389 609 648 667c281 63 486 18 706-99 141-75 257-95 418-71v441H-80Z" fill="#e5f3ef" opacity=".38"/>
  <path d="M-130 760C117 652 370 639 645 706c266 65 495 49 719-48 154-67 263-88 414-60v353H-130Z" fill="#0f4c5a" opacity=".22"/>

  <path d="M-84 604C166 493 374 509 612 580c246 73 453 46 667-64 155-80 284-109 472-68" fill="none" stroke="#fffdfa" stroke-width="3" opacity=".78"/>
  <path d="M-42 641C197 543 416 550 665 614c269 70 478 37 697-80 145-78 265-108 395-93" fill="none" stroke="url(#edge)" stroke-width="4" opacity=".68"/>
  <path d="M-85 716C155 609 407 598 687 660c260 58 466 33 690-76 142-69 252-93 394-76" fill="none" stroke="#0f766e" stroke-width="3" opacity=".36"/>
  <path d="M-120 798C140 688 405 682 705 737c288 52 505 31 742-52 124-44 241-56 347-39" fill="none" stroke="#ffffff" stroke-width="2" opacity=".4"/>

  <g opacity=".28">
    <path d="M822 70C1045 34 1248 73 1455 151" fill="none" stroke="#c5892f" stroke-width="2"/>
    <path d="M855 83C1074 52 1262 89 1469 165" fill="none" stroke="#ffffff" stroke-width="1"/>
    <path d="M893 96C1098 72 1289 107 1491 182" fill="none" stroke="#0f766e" stroke-width="1"/>
  </g>

  <rect width="1600" height="900" fill="url(#grain)" opacity=".26"/>
</svg>
